<svg id="Layer_1" data-name="Layer 1" xmlns="http://www.w3.org/2000/svg" xmlns:xlink="http://www.w3.org/1999/xlink" viewBox="0 0 1286.27 232"><defs><style>.cls-1{fill:#fff;}.cls-2{fill:#2f2f2f;stroke:#2f2f2f;stroke-miterlimit:10;}.cls-3{fill:url(#linear-gradient);}.cls-4{fill:#39b44a;}</style><linearGradient id="linear-gradient" x1="41.15" y1="56.84" x2="200.76" y2="56.84" gradientTransform="translate(74.29 67.15) rotate(33.49)" gradientUnits="userSpaceOnUse"><stop offset="0" stop-color="#39b44a"/><stop offset="1" stop-color="#56a864"/></linearGradient></defs><title>t2-logo-white</title><path class="cls-1" d="M336.05,85.41H444.34V111.6H392.62v29.74H431.2v24.58H392.62v34h52v29.74H336.05Z" transform="translate(-21.55 -41.5)"/><path class="cls-1" d="M462.63,185.16l48-3.92c.29,19.59,7.43,24,16.57,24,8.86,0,9.43-5.34,9.43-8.55,0-11.75-9.43-18.88-25.71-27.43l-14.58-7.65c-18.28-9.62-33.71-21-33.71-39.37,0-25.29,26.28-39,68-39,53.15,0,57.15,27.6,57.43,42l-49.14,3c0-12.47-.29-19.59-10.29-19.59a10.35,10.35,0,0,0-10.57,10c0,11.22,10.29,17.1,24.57,24.94l13.43,7.3c20.58,11,36.58,23.69,36.58,44.17,0,20.13-23.72,36.87-62,36.87C485.77,232,464.06,219.35,462.63,185.16Z" transform="translate(-21.55 -41.5)"/><path class="cls-1" d="M607.21,185.16l48-3.92c.29,19.59,7.43,24,16.57,24,8.86,0,9.43-5.34,9.43-8.55,0-11.75-9.43-18.88-25.71-27.43l-14.58-7.65c-18.28-9.62-33.71-21-33.71-39.37,0-25.29,26.29-39,68-39,53.15,0,57.15,27.6,57.44,42l-49.15,3c0-12.47-.29-19.59-10.29-19.59a10.35,10.35,0,0,0-10.57,10c0,11.22,10.29,17.1,24.57,24.94l13.43,7.3c20.58,11,36.58,23.69,36.58,44.17,0,20.13-23.72,36.87-62,36.87C630.35,232,608.64,219.35,607.21,185.16Z" transform="translate(-21.55 -41.5)"/><path class="cls-1" d="M762.07,85.41h108.3V111.6H818.65v29.74h38.57v24.58H818.65v34h52v29.74H762.07Z" transform="translate(-21.55 -41.5)"/><path class="cls-1" d="M893.22,85.41H955.8c38.86,0,76.86,4.1,76.86,38.3,0,17.28-13.43,26-34,28.5,26.58,1.6,41.43,13.89,41.43,34.19,0,31.35-27.43,43.28-72.86,43.28h-74Zm64,57c22,0,26-6.95,26-17.63,0-8.91-9.14-16-24-16H949.8v33.66Zm.29,62.7c20.86,0,28-6.77,28-19.42,0-15.49-6.86-20.66-27.72-20.66h-8v40.08Z" transform="translate(-21.55 -41.5)"/><path class="cls-1" d="M1066.67,85.41H1175V111.6h-51.72v29.74h38.58v24.58h-38.58v34h52v29.74H1066.67Z" transform="translate(-21.55 -41.5)"/><path class="cls-1" d="M1217.53,111.6h-33.71V85.41h124V111.6h-33.44V229.68h-56.86Z" transform="translate(-21.55 -41.5)"/><polygon class="cls-2" points="200.63 0.5 67.26 0.5 0.58 116 67.26 231.5 200.63 231.5 267.31 116 200.63 0.5"/><path class="cls-3" d="M244.49,173.74,109.29,233.5c.48-49.4,1-98.12,1.44-146.85l1.22-.42c.8,1.45,1.65,2.87,2.39,4.35,12,24.32,24.06,48.61,35.85,73,1.69,3.5,3.69,4.71,7.43,4.88,27.64,1.21,55.27,2.63,82.9,4,1.25.06,2.5.16,3.75.25Z" transform="translate(-21.55 -41.5)"/><path class="cls-4" d="M139.77,101.17l72.51,3.63c-3.32,5-5.94,9.33-9,13.31-.76,1-2.89,1.35-4.38,1.32-15.57-.27-31.14-.62-46.7-1.14-1.55-.05-3.73-1-4.47-2.16C145,111.64,142.74,106.85,139.77,101.17Z" transform="translate(-21.55 -41.5)"/><path class="cls-4" d="M155.79,132.59l72.49,3.68c-3.26,4.92-5.75,9.11-8.73,12.93-.89,1.13-3.15,1.69-4.77,1.67-15.55-.24-31.09-.57-46.62-1.17a7.19,7.19,0,0,1-5-3.07C160.54,142.36,158.45,137.74,155.79,132.59Z" transform="translate(-21.55 -41.5)"/></svg>